# xmcd
#
# Track frame offsets: 
#        150
#        21396
#        37139
#        55791
#        74580
#        91059
#        109219
#        126073
#        145787
#        163585
#        179693
#
# Disc length: 2550 seconds
#
# Revision: 2
# Processed by: cddbd v1.5.2PL0 Copyright (c) Steve Scherf et al.
# Submitted via: ExactAudioCopy v0.90b4
#
DISCID=9e09f40b
DTITLE=Nina - Nina
DYEAR=2006
DGENRE=R&B
TTITLE0=I Do
TTITLE1=Ooh Boy
TTITLE2=Where Is Love
TTITLE3=I Can't Make You Love Me
TTITLE4=I Need Your Love
TTITLE5=I Didn't Mean To Make You Mine 
TTITLE6=Love Is Contagious
TTITLE7=What If
TTITLE8=Is It Over
TTITLE9=Someday
TTITLE10=Araw Mo
EXTD=
EXTT0=
EXTT1=
EXTT2=
EXTT3=
EXTT4=
EXTT5=
EXTT6=
EXTT7=
EXTT8=
EXTT9=
EXTT10=
PLAYORDER=
